<svg width="126" height="63" viewBox="0 0 126 63" fill="none" xmlns="http://www.w3.org/2000/svg">
<path fill-rule="evenodd" clip-rule="evenodd" d="M60.8639 37.56L62.508 37.5729V42.3511H60.8639V37.56ZM79.0133 38.4463V37.6885H79.3344C79.4114 37.6885 79.4757 37.7013 79.5142 37.7142C79.5527 37.727 79.5784 37.7527 79.6041 37.7912C79.6298 37.8298 79.6426 37.8683 79.6426 37.9068C79.6426 37.9582 79.6298 38.0096 79.5913 38.0481C79.5527 38.0867 79.5142 38.1123 79.4371 38.1123C79.4757 38.138 79.5013 38.1509 79.5142 38.1766C79.5399 38.2023 79.5656 38.2408 79.6041 38.305L79.694 38.4592H79.5142L79.3986 38.2922C79.3601 38.2279 79.3344 38.2023 79.3215 38.1766C79.3087 38.1637 79.2958 38.1509 79.2701 38.1509C79.2573 38.1509 79.2316 38.138 79.1931 38.138H79.1674V38.4592H79.0133V38.4463ZM79.1545 38.0096H79.2701C79.3472 38.0096 79.3857 38.0096 79.4114 37.9967C79.4243 37.9967 79.45 37.9839 79.45 37.9711C79.4628 37.9582 79.4628 37.9325 79.4628 37.9197C79.4628 37.894 79.45 37.8683 79.4371 37.8555C79.4243 37.8426 79.3986 37.8298 79.3857 37.8298C79.3729 37.8298 79.3344 37.8298 79.2701 37.8298H79.1545V38.0096ZM48.1734 21.53C48.0835 21.6713 47.4028 23.8035 47.3771 23.9962L48.9441 23.9833C48.8927 23.6622 48.6744 23.0585 48.5716 22.7246C48.5074 22.4934 48.3019 21.6328 48.1734 21.53ZM54.0691 32.5892C54.1462 32.2552 54.0049 32.3194 53.6966 32.3194C53.4654 32.3194 53.2214 32.2938 52.9902 32.3451C52.669 32.4222 52.258 32.6663 52.425 33.1287C52.6177 33.6296 53.8379 33.681 54.0691 32.5892ZM52.5406 38.639C51.269 38.9601 51.4745 41.6831 53.1186 41.2593C54.3003 40.951 54.1333 38.2408 52.5406 38.639ZM64.9099 39.4996H66.721C66.7724 38.1123 64.8714 38.1894 64.9099 39.4996ZM70.3303 31.613C70.3945 31.0221 69.9835 30.6111 69.4312 30.6111C68.9046 30.6111 68.4679 31.0607 68.5321 31.6258L70.3303 31.613ZM62.675 23.7264L64.4989 23.7393C64.5374 23.1613 64.1649 22.7374 63.5998 22.7374C63.0475 22.7246 62.6107 23.1741 62.675 23.7264ZM79.5527 24.4586C78.3582 24.7155 79.0389 25.9357 80.0023 25.499C80.2849 25.3705 80.5289 25.0494 80.606 24.6769C80.6702 24.3687 80.5161 24.4329 80.2335 24.42C79.9766 24.42 79.7839 24.4072 79.5527 24.4586ZM79.8481 38.305C80.1436 37.5343 79.0518 37.1105 78.8077 37.8555C78.5508 38.6261 79.5656 39.0372 79.8481 38.305ZM52.2837 37.4958C53.915 37.2518 55.2765 38.061 55.5334 39.4225C55.8545 41.1051 54.7756 42.2226 53.337 42.4153C49.4451 42.9676 48.79 38.0224 52.2837 37.4958ZM67.7743 42.1584C66.554 42.5951 65.1411 42.6079 64.1521 41.8886C63.33 41.285 62.9062 39.8849 63.5227 38.6775C64.486 36.8279 68.455 36.7123 68.1981 40.4244L64.9228 40.4372C64.8971 40.9767 65.4879 41.285 66.0402 41.3363C66.965 41.4262 67.3761 41.0923 67.7871 41.0152L67.7743 42.1584ZM69.3541 36.4811C69.6753 36.3912 70.7028 36.0187 70.9726 36.0058V37.5472C71.268 37.5857 71.5762 37.56 71.8717 37.56C72.2313 37.56 72.1543 37.5986 72.1286 38.716L71.0111 38.7417C71.0111 38.7546 70.9982 38.7674 70.9982 38.7803C70.9597 38.9601 70.9726 39.0243 70.9726 39.2041C70.9726 39.9748 70.8184 41.1051 71.3194 41.3106C71.6533 41.4519 71.846 41.285 72.1414 41.3363L72.1928 42.3639C71.1909 42.6208 69.9707 42.4923 69.5597 41.8116C69.1101 41.0666 69.4697 39.6408 69.3156 38.7289L68.3779 38.7032C68.3779 38.472 68.3137 37.7527 68.4036 37.6114C68.5064 37.5087 69.0459 37.6371 69.3541 37.5472V36.4811ZM79.116 37.3417C79.5656 37.1747 79.9637 37.5087 80.0665 37.8169C80.2206 38.2665 79.9509 38.7032 79.6041 38.8188C78.6408 39.1399 78.0499 37.727 79.116 37.3417ZM60.0804 42.2611C59.0528 42.4923 58.1408 42.6079 57.2032 42.107C56.5096 41.7345 55.9573 41.0538 55.9701 39.9363C55.9829 37.5343 58.6675 37.0719 60.0675 37.7142L59.9391 38.9087C59.4767 38.7289 58.9886 38.4977 58.3849 38.7803C57.2546 39.3069 57.4087 41.4006 59.2968 41.2336C59.6308 41.2079 59.7978 41.0923 60.0675 41.0538L60.0804 42.2611ZM73.0277 43.0575C73.3616 43.0318 73.58 43.2245 74.0039 43.0704C74.2351 42.9804 74.5177 42.6979 74.5048 42.4538C74.492 42.2483 72.6167 37.8298 72.6167 37.56C72.9249 37.5472 74.158 37.483 74.3378 37.5857C74.5048 37.7142 75.2241 40.4244 75.4039 40.6299C75.5324 40.4501 75.8278 39.3968 75.9177 39.1014C76.0076 38.8188 76.3159 37.7399 76.4186 37.56H78.0242C77.9857 37.8298 77.3435 39.3711 77.1893 39.7564C76.9067 40.4886 76.6242 41.1822 76.3416 41.9143C75.6994 43.5199 75.2883 44.8301 72.9635 44.2777C72.8992 44.0722 73.002 43.3272 73.0277 43.0575ZM60.8639 35.5691L62.508 35.582L62.4951 36.7765H60.851L60.8639 35.5691ZM45.0779 40.7969C45.1678 40.7969 45.6431 41.0024 45.8357 41.0538C46.5165 41.2336 48.2248 41.3749 47.878 40.3473C47.6725 39.7308 45.8486 39.6665 45.2449 38.9216C44.4614 37.9325 44.7054 35.8517 47.5312 35.8132C47.9551 35.8132 49.0212 35.8645 49.3166 36.0701L49.2139 37.2903C49.1496 37.3288 49.201 37.3288 49.0854 37.316L48.4175 37.1362C46.5679 36.8407 46.3752 37.7013 46.8633 38.0738C47.1587 38.305 47.9422 38.4463 48.3661 38.6004C48.8927 38.806 49.2909 39.05 49.4964 39.4996C49.7276 39.9877 49.7276 40.6813 49.5221 41.1822C48.79 42.9804 45.3862 42.441 44.9495 42.1584L45.0779 40.7969ZM71.3836 34.2718C70.3175 34.7471 68.6862 34.6828 67.7871 34.0278C66.9522 33.4241 66.4898 32.024 67.1449 30.7781C68.1724 28.8129 72.2185 29.0569 71.8203 32.5378H68.5449C68.5192 33.1287 69.1101 33.4112 69.6753 33.4498C70.6643 33.514 70.934 33.2186 71.3836 33.1287V34.2718ZM57.9995 30.4827C58.1151 30.4441 58.0766 30.4441 58.1665 30.3157C58.8344 29.3267 60.5428 29.3138 61.2107 30.1873C61.6474 30.7524 61.596 31.3561 61.596 32.1396C61.596 32.8846 61.6217 33.6938 61.596 34.4516H59.9648C59.8492 32.7947 60.3629 30.8552 59.0656 30.9579C57.794 31.0478 58.2179 33.2828 58.1537 34.4645L56.5096 34.4516L56.5224 29.6863L58.0124 29.6992L57.9995 30.4827ZM51.4745 29.9047C51.9369 29.6478 52.9131 29.545 53.5296 29.5707C55.9829 29.6606 55.649 31.5231 55.649 33.3599C55.649 33.758 55.7132 34.092 55.7132 34.4516C55.4563 34.4645 54.4031 34.4902 54.2104 34.426C54.2104 34.2718 54.2232 33.925 54.1333 33.7966C53.8507 34.0149 53.581 34.7342 52.2837 34.5544C50.524 34.3104 50.3827 32.2938 51.7828 31.6901C52.592 31.3433 53.1828 31.4717 54.0819 31.4717C54.1719 30.5084 52.7975 30.5983 52.1553 30.7524C51.9626 30.8038 51.5773 30.9708 51.4745 30.9708V29.9047ZM66.3485 34.3617C64.3191 35.004 62.2254 34.1691 62.2382 32.0497C62.2511 29.9689 64.3961 29.0441 66.3357 29.8148L66.2072 30.9965C65.8604 30.9065 65.3081 30.5597 64.6273 30.8809C63.7154 31.3176 63.6511 32.8204 64.7429 33.2443C65.4751 33.5268 66.0916 33.1543 66.3228 33.1543L66.3485 34.3617ZM74.0296 30.4827C74.2993 30.3671 74.3764 29.3395 75.9948 29.6092C76.0333 29.7377 75.9819 30.8038 75.9434 30.9579C75.5324 30.9965 74.5048 30.701 74.2351 31.8956C74.0809 32.5506 74.2094 33.6938 74.1708 34.4516H72.5267L72.5396 29.6735L74.0296 29.6863V30.4827ZM50.4084 34.2847C49.7919 34.6957 44.8082 35.2737 44.8339 31.2405C44.8467 29.7634 45.5146 28.8386 46.5293 28.3376C47.7624 27.7339 49.1111 27.8881 50.3956 28.2477L50.2671 29.5964C50.1258 29.5964 49.8946 29.4551 49.7276 29.3909C48.1606 28.8257 46.6064 29.468 46.5936 31.2277C46.5807 32.7562 47.801 33.4369 49.1239 33.2699C49.7276 33.1929 50.0616 33.0259 50.3313 32.9874L50.4084 34.2847ZM70.7157 21.7869L72.3598 21.7997L72.3469 26.5779L70.7157 26.5651V21.7869ZM47.1587 20.1556L49.2267 20.1685C49.3808 20.3868 49.7533 21.4658 49.8561 21.7741C50.0616 22.3007 50.2543 22.8016 50.4598 23.3539C50.6525 23.8677 51.6543 26.2697 51.6672 26.5779L49.8304 26.5651C49.702 26.2054 49.4836 25.4605 49.3423 25.2036H46.9532L46.4266 26.5651L44.7183 26.5522L47.1587 20.1556ZM65.5393 26.3853C64.3576 26.8477 62.8419 26.8091 61.9171 26.1155C61.1079 25.499 60.6584 24.1246 61.3134 22.8787C62.0584 21.4529 64.7301 21.0933 65.6549 22.8145C65.8861 23.2512 66.0531 24.0604 65.976 24.6641L62.7007 24.6769C62.7135 25.2806 63.2273 25.5247 63.8438 25.5889C64.7301 25.666 65.0384 25.3834 65.5393 25.2549V26.3853ZM84.5621 22.609C84.6905 22.5319 84.6263 22.5576 84.7162 22.4291C84.7676 22.3649 84.7933 22.3135 84.8318 22.275C85.5126 21.4786 87.0925 21.4658 87.7219 22.275C88.1586 22.8273 88.1329 23.3925 88.1329 24.2274C88.1329 24.8953 88.1971 25.9485 88.12 26.5779H86.5016C86.3347 25.0623 86.9255 22.9558 85.6154 23.0585C84.2924 23.1741 84.7676 25.3962 84.6905 26.5779L83.0464 26.5651L83.0593 21.7869L84.5364 21.7997L84.5621 22.609ZM53.7351 22.5833C53.8764 22.519 53.8251 22.5319 53.915 22.4163C54.4544 21.6328 55.6747 21.4915 56.394 21.9025C56.8821 22.1851 56.8178 22.442 57.049 22.5447C57.4986 21.5942 59.5152 21.286 60.1189 22.3135C60.44 22.853 60.4015 23.6108 60.4015 24.3044C60.4015 25.0109 60.44 25.8715 60.3886 26.5779L58.7574 26.5651C58.6546 24.9595 59.1427 22.8915 57.9353 23.0714C56.805 23.2383 57.2289 25.4733 57.139 26.5908L55.5077 26.5779C55.3664 24.998 55.9187 22.9044 54.6856 23.0714C53.5296 23.2383 53.9535 25.499 53.8893 26.5908L52.2452 26.5779L52.258 21.7997L53.7351 21.8126V22.5833ZM77.9857 22.031C78.3582 21.7484 79.45 21.6585 80.028 21.6713C82.5198 21.7612 82.173 23.6237 82.173 25.4733C82.173 25.8586 82.2372 26.1926 82.2501 26.5651L80.7473 26.5394L80.6959 25.8586C80.439 26.0385 80.195 26.7963 78.8206 26.6422C77.0866 26.4366 76.9067 24.4072 78.3196 23.7778C79.0903 23.431 79.7711 23.5338 80.6317 23.5723C80.606 22.5704 79.3472 22.6989 78.6664 22.8658C78.4096 22.9301 78.2169 23.0457 78.0242 23.0971L77.9857 22.031ZM68.2367 22.5833C68.6092 21.8768 69.0587 21.5429 70.1633 21.7355L70.0734 23.0971C69.6367 23.0842 69.3028 22.9943 68.9303 23.2127C68.0183 23.7393 68.3651 25.3448 68.3137 26.5908H66.6568L66.6696 21.7997L68.1596 21.8254C68.1724 21.9539 68.1724 22.0823 68.1596 22.2108C68.1596 22.6475 68.1853 22.519 68.2367 22.5833ZM76.9324 26.4623C76.6113 26.6421 75.8406 26.6935 75.4039 26.6807C72.424 26.5908 72.0258 23.0585 74.1066 22.0053C74.7489 21.6841 76.2902 21.4786 76.9067 21.9539L76.7911 23.1099C76.5086 23.0585 76.3673 22.9172 76.0076 22.8915C73.9525 22.7374 74.0167 25.6917 76.1618 25.4605C76.47 25.4219 76.6499 25.3192 76.9067 25.2806L76.9324 26.4623ZM70.7157 19.796L72.3598 19.8088L72.3469 21.0034H70.7157V19.796ZM26.145 9.19923H40.9291L40.942 53.6029H85.4098L100.13 9.13501H26.145V9.19923Z" fill="#23408A"/>
<path fill-rule="evenodd" clip-rule="evenodd" d="M34.5711 44.9328L34.5839 46.1145C35.0463 46.4484 35.2518 47.2577 34.7894 47.7971C34.3399 48.3238 33.505 48.1953 33.0939 47.7843C32.8113 47.5017 32.8499 47.2833 32.8499 46.8209C32.8499 46.6925 32.837 46.3072 32.8499 46.2173C32.8884 46.0503 34.5454 44.9328 34.5711 44.9328ZM36.0996 42.852C35.9454 43.3401 34.4298 44.3933 33.9417 44.7658C33.6206 45.0099 33.0425 45.5108 32.7086 45.575C32.0535 45.6906 31.514 45.2282 31.7196 44.5346C31.8223 44.175 33.5178 42.9676 33.9031 42.6593C34.1857 42.4409 34.7894 41.9272 35.1234 41.8501C35.7913 41.696 36.3179 42.1712 36.0996 42.852ZM36.7032 39.6023C36.5876 39.9491 36.3693 40.0775 36.1252 40.2831C35.1234 41.1051 33.5949 42.3767 32.6058 43.096C32.0021 43.5327 31.0645 43.1346 31.2957 42.2226C31.3856 41.8758 31.6296 41.7345 31.8608 41.5418C32.259 41.2207 35.1362 38.883 35.3803 38.7289C36.0482 38.305 36.973 38.7802 36.7032 39.6023ZM33.6976 36.7123C32.5801 35.9031 32.8499 36.16 32.8499 34.4516V18.8326C32.8499 17.8051 32.8113 16.7261 32.8499 15.7114C32.8627 15.4674 33.5435 13.7077 33.6976 13.4893C33.8004 13.5535 34.5454 15.3903 34.5711 15.5701C34.6224 15.8527 34.5839 31.4075 34.5839 33.1672C34.5839 34.1048 34.6224 35.1581 34.5711 36.0829C34.327 36.237 33.8774 36.6609 33.6976 36.7123ZM32.2719 34.4902C31.3085 34.8883 30.2938 33.758 30.3067 34.7085C30.5122 34.8498 33.1325 36.9306 33.2352 37.0462C33.1838 37.149 32.1177 37.9967 31.9379 38.0738C31.7581 38.0096 30.6792 37.1233 30.4094 36.9178C30.114 36.6866 29.125 35.9801 28.9323 35.7104C28.1745 34.6828 28.5726 32.6149 30.5122 32.6149H32.1563C32.0792 32.936 31.604 33.3598 31.6682 33.5782C31.7196 33.758 32.2077 34.2461 32.2719 34.4902ZM35.239 32.5892C36.3693 32.5249 37.795 32.3708 38.4373 33.3855C38.6942 33.7837 38.8611 34.4259 38.7455 34.9911C38.6042 35.6205 38.3088 35.826 37.8849 36.16C36.3436 37.3545 34.905 38.5234 33.3637 39.7179C32.9526 40.0262 32.6315 40.2959 32.2462 40.5913C32.0278 40.7583 31.8608 40.8996 31.5012 40.8739C30.8847 40.8225 30.5892 40.1161 30.859 39.6408C31.026 39.3583 36.9858 34.8241 37.0501 34.6957C37.0629 34.4902 36.9858 34.4002 36.8959 34.2975C36.4078 34.2461 35.7271 34.8627 35.1362 34.4645C35.2133 34.3103 35.7014 33.6938 35.7399 33.5654C35.8041 33.3727 35.2903 32.8589 35.239 32.5892ZM26.145 53.6029H40.942L40.9291 9.19922H26.145V53.6029Z" fill="#C5212D"/>
<path fill-rule="evenodd" clip-rule="evenodd" d="M53.7351 22.5834V21.7999L52.258 21.7871L52.2451 26.5652L53.8892 26.5781C53.9534 25.4991 53.5424 23.2257 54.6856 23.0587C55.9187 22.8917 55.3535 24.9854 55.5076 26.5652L57.1389 26.5781C57.216 25.4735 56.8049 23.2385 57.9353 23.0587C59.1427 22.8789 58.6546 24.9468 58.7573 26.5524L60.3886 26.5652C60.44 25.8716 60.4014 24.9982 60.4014 24.2918C60.4014 23.5853 60.44 22.8275 60.1188 22.3008C59.5151 21.2733 57.4985 21.5687 57.049 22.532C56.8178 22.4164 56.882 22.1596 56.3939 21.8898C55.6746 21.4788 54.4544 21.6201 53.9149 22.4036C53.825 22.5449 53.8764 22.532 53.7351 22.5834Z" fill="white"/>
<path fill-rule="evenodd" clip-rule="evenodd" d="M48.1734 21.53C48.3019 21.6327 48.5074 22.4933 48.5716 22.7374C48.6744 23.0713 48.8927 23.6622 48.9441 23.9961L47.3771 24.009C47.4028 23.8035 48.0835 21.6713 48.1734 21.53ZM44.7183 26.565L46.4266 26.5779L46.9532 25.2164H49.3423C49.4836 25.4733 49.7148 26.2182 49.8304 26.5779L51.6672 26.5907C51.6543 26.2825 50.6525 23.8805 50.4598 23.3668C50.2543 22.8144 50.0488 22.3135 49.8561 21.7869C49.7405 21.4914 49.368 20.3997 49.2267 20.1813L47.1587 20.1685L44.7183 26.565Z" fill="white"/>
<path fill-rule="evenodd" clip-rule="evenodd" d="M45.078 40.7972L44.9496 42.1587C45.3863 42.4413 48.7901 42.9807 49.5223 41.1825C49.7278 40.6816 49.7278 39.988 49.4966 39.4999C49.2911 39.0503 48.8929 38.8063 48.3662 38.6007C47.9424 38.4466 47.1589 38.3053 46.8634 38.0741C46.3753 37.6888 46.568 36.8282 48.4176 37.1365L49.0855 37.3163C49.2011 37.3163 49.1498 37.3291 49.214 37.2906L49.3167 36.0704C49.0213 35.8777 47.9552 35.8135 47.5313 35.8135C44.7055 35.852 44.4615 37.9328 45.245 38.9219C45.8487 39.6668 47.6726 39.7311 47.8782 40.3476C48.225 41.3752 46.5166 41.2339 45.8359 41.0541C45.6432 41.0027 45.1679 40.81 45.078 40.7972Z" fill="white"/>
<path fill-rule="evenodd" clip-rule="evenodd" d="M50.4081 34.2848L50.3311 32.9875C50.0742 33.0261 49.7402 33.193 49.1237 33.2701C47.7878 33.4371 46.5805 32.7563 46.5933 31.2278C46.6061 29.4681 48.1603 28.813 49.7274 29.391C49.8944 29.4553 50.1256 29.5966 50.2668 29.5966L50.3953 28.2479C49.1108 27.8754 47.7622 27.7341 46.5291 28.3378C45.5015 28.8387 44.8336 29.7635 44.8336 31.2407C44.8079 35.2739 49.7788 34.6959 50.4081 34.2848Z" fill="white"/>
<path fill-rule="evenodd" clip-rule="evenodd" d="M73.0279 43.0574C73.015 43.3271 72.8994 44.0721 72.9508 44.2776C75.2757 44.8299 75.6867 43.5198 76.3289 41.9142C76.6115 41.1949 76.8941 40.4885 77.1767 39.7563C77.3308 39.371 77.973 37.8168 78.0116 37.5599H76.406C76.2904 37.7398 75.9821 38.8187 75.9051 39.1013C75.8151 39.3967 75.5326 40.45 75.3913 40.6298C75.2114 40.4371 74.4922 37.7141 74.3252 37.5856C74.1453 37.4829 72.9123 37.5471 72.604 37.5599C72.604 37.8297 74.4793 42.2482 74.4922 42.4537C74.505 42.6978 74.2224 42.9803 73.9912 43.0702C73.5802 43.2244 73.3618 43.0317 73.0279 43.0574Z" fill="white"/>
<path fill-rule="evenodd" clip-rule="evenodd" d="M52.5404 38.639C54.146 38.2279 54.3129 40.951 53.1184 41.2593C51.4743 41.6831 51.2688 38.9601 52.5404 38.639ZM52.2835 37.4958C48.7769 38.0353 49.432 42.9676 53.3368 42.4281C54.7753 42.2226 55.8543 41.118 55.5332 39.4353C55.2891 38.0481 53.9276 37.2389 52.2835 37.4958Z" fill="white"/>
<path fill-rule="evenodd" clip-rule="evenodd" d="M84.5624 22.6089L84.5495 21.7997L83.0724 21.7869L83.0596 26.565L84.7037 26.5779C84.7807 25.3962 84.3055 23.1741 85.6285 23.0585C86.9386 22.9429 86.3478 25.0622 86.5148 26.5779H88.1332C88.2102 25.9485 88.146 24.8952 88.146 24.2273C88.146 23.3924 88.1717 22.8273 87.735 22.275C87.1056 21.4657 85.5257 21.4786 84.845 22.275C84.8064 22.3263 84.7679 22.3649 84.7294 22.4291C84.6395 22.5704 84.6908 22.5318 84.5624 22.6089Z" fill="white"/>
<path fill-rule="evenodd" clip-rule="evenodd" d="M57.9994 30.4828V29.6864L56.5094 29.6736L56.4966 34.4389L58.1407 34.4518C58.2049 33.2829 57.781 31.0479 59.0527 30.9452C60.35 30.8424 59.8362 32.782 59.9518 34.4389H61.583C61.6216 33.6811 61.583 32.8847 61.583 32.1269C61.583 31.3434 61.6216 30.7397 61.1977 30.1745C60.5298 29.3011 58.8343 29.3139 58.1535 30.303C58.0765 30.4442 58.115 30.4314 57.9994 30.4828Z" fill="white"/>
<path fill-rule="evenodd" clip-rule="evenodd" d="M79.5529 24.4585C79.7841 24.4072 79.9768 24.42 80.2337 24.42C80.5163 24.4328 80.6704 24.3686 80.6062 24.6769C80.5291 25.0494 80.2851 25.3577 80.0025 25.4989C79.0392 25.9485 78.3584 24.7283 79.5529 24.4585ZM77.9859 22.0309L77.9987 23.1099C78.1914 23.0585 78.3841 22.9429 78.641 22.8787C79.3217 22.7117 80.5805 22.5961 80.6062 23.5851C79.7456 23.5594 79.0648 23.4567 78.2942 23.7906C76.8813 24.4072 77.0739 26.4494 78.7951 26.655C80.1823 26.8219 80.4135 26.0513 80.6704 25.8714L80.7218 26.5522L82.2246 26.5779C82.2118 26.2054 82.1475 25.8714 82.1475 25.4861C82.1475 23.6365 82.4943 21.774 80.0025 21.6841C79.463 21.6584 78.3584 21.7483 77.9859 22.0309Z" fill="white"/>
<path fill-rule="evenodd" clip-rule="evenodd" d="M54.0693 32.5892C53.8381 33.681 52.6179 33.6424 52.4252 33.1286C52.2582 32.6791 52.6692 32.4222 52.9904 32.3451C53.2087 32.2937 53.4656 32.3194 53.6968 32.3194C54.0179 32.3194 54.1464 32.2552 54.0693 32.5892ZM51.4747 29.9046L51.4875 30.9836C51.5903 30.9836 51.9756 30.8038 52.1683 30.7652C52.8105 30.6111 54.1849 30.5212 54.095 31.4845C53.1959 31.4717 52.5922 31.3561 51.7958 31.7029C50.3958 32.2937 50.537 34.3232 52.2967 34.5672C53.594 34.747 53.8766 34.0278 54.1464 33.8094C54.2234 33.9378 54.2106 34.2975 54.2234 34.4388C54.4161 34.503 55.4694 34.4773 55.7262 34.4645C55.7134 34.1048 55.6492 33.7709 55.662 33.3727C55.662 31.5359 56.0088 29.6734 53.5427 29.5835C52.9133 29.545 51.9243 29.6478 51.4747 29.9046Z" fill="white"/>
<path fill-rule="evenodd" clip-rule="evenodd" d="M70.3303 31.613H68.5321C68.4678 31.0479 68.9045 30.5983 69.4312 30.5983C69.9963 30.6112 70.3945 31.0093 70.3303 31.613ZM71.3835 34.2719V33.1415C70.9211 33.2314 70.6642 33.5397 69.6752 33.4627C69.1101 33.4241 68.5192 33.1415 68.5449 32.5507H71.8203C72.2184 29.057 68.1724 28.8129 67.1448 30.791C66.5026 32.0369 66.9522 33.4241 67.7871 34.0407C68.699 34.6829 70.3174 34.7471 71.3835 34.2719Z" fill="white"/>
<path fill-rule="evenodd" clip-rule="evenodd" d="M64.9101 39.4995C64.8587 38.1894 66.7597 38.1251 66.7212 39.4995H64.9101ZM67.7744 42.1583L67.7873 41.028C67.3763 41.1051 66.9652 41.439 66.0404 41.3491C65.4881 41.2977 64.9101 40.9895 64.9229 40.45L68.1983 40.4372C68.468 36.7251 64.4862 36.8407 63.5229 38.6903C62.8935 39.8977 63.3302 41.2849 64.1523 41.9014C65.1285 42.6079 66.5542 42.595 67.7744 42.1583Z" fill="white"/>
<path fill-rule="evenodd" clip-rule="evenodd" d="M62.675 23.7266C62.6108 23.1872 63.0475 22.7248 63.587 22.7248C64.1521 22.7248 64.5375 23.1486 64.4861 23.7266H62.675ZM65.5393 26.3855V25.2551C65.0256 25.3836 64.7301 25.6662 63.8439 25.5891C63.2273 25.5377 62.7135 25.2808 62.7007 24.6771L65.9761 24.6643C66.066 24.0606 65.8861 23.2514 65.6549 22.8147C64.743 21.0935 62.0585 21.4532 61.3135 22.8789C60.6584 24.1248 61.108 25.4992 61.9172 26.1157C62.8291 26.8093 64.3576 26.8479 65.5393 26.3855Z" fill="white"/>
<path fill-rule="evenodd" clip-rule="evenodd" d="M69.354 36.4809L69.3412 37.5213C69.0329 37.6112 68.4934 37.4828 68.3907 37.5856C68.3008 37.7397 68.365 38.4461 68.365 38.6773L69.3026 38.703C69.4568 39.615 69.0971 41.0536 69.5467 41.7857C69.9577 42.4665 71.178 42.5821 72.1798 42.338L72.1284 41.3105C71.833 41.2719 71.6404 41.4261 71.3064 41.2848C70.8055 41.0793 70.9596 39.9489 70.9596 39.1783C70.9596 38.9985 70.9467 38.9214 70.9853 38.7544C70.9853 38.7416 70.9853 38.7287 70.9981 38.7159L72.1156 38.6902C72.1413 37.5727 72.2184 37.5342 71.8587 37.5342C71.5633 37.5342 71.2422 37.5599 70.9596 37.5213V35.98C70.7027 36.0185 69.6751 36.3782 69.354 36.4809Z" fill="white"/>
<path fill-rule="evenodd" clip-rule="evenodd" d="M76.9325 26.4622L76.9068 25.2805C76.6371 25.3191 76.4573 25.4347 76.1619 25.4603C74.0168 25.6916 73.9526 22.7373 76.0077 22.8914C76.3674 22.9171 76.5087 23.0584 76.7912 23.1098L76.9068 21.9538C76.2903 21.4785 74.749 21.684 74.1067 22.0052C72.0131 23.0584 72.4113 26.5907 75.404 26.6806C75.8407 26.6934 76.6114 26.642 76.9325 26.4622Z" fill="white"/>
<path fill-rule="evenodd" clip-rule="evenodd" d="M66.3486 34.3617L66.3358 33.1671C66.0917 33.1671 65.488 33.5396 64.7559 33.257C63.6513 32.8332 63.7283 31.3304 64.6403 30.8936C65.3082 30.5725 65.8734 30.9193 66.2202 31.0092L66.3486 29.8275C64.4091 29.0569 62.2641 29.9817 62.2512 32.0625C62.2255 34.169 64.3192 35.0039 66.3486 34.3617Z" fill="white"/>
<path fill-rule="evenodd" clip-rule="evenodd" d="M60.0802 42.2613L60.0674 41.054C59.7976 41.0925 59.6306 41.2081 59.2967 41.2338C57.4085 41.4008 57.2544 39.2942 58.3847 38.7805C58.9884 38.4979 59.4637 38.7291 59.9389 38.9089L60.0674 37.7144C58.6673 37.0593 55.9956 37.5345 55.9699 39.9365C55.9571 41.0411 56.5094 41.7347 57.203 42.1072C58.1535 42.6081 59.0655 42.4925 60.0802 42.2613Z" fill="white"/>
<path fill-rule="evenodd" clip-rule="evenodd" d="M68.2366 22.5831C68.1724 22.5189 68.1467 22.6474 68.1596 22.1978C68.1596 22.0694 68.1596 21.9409 68.1596 21.8125L66.6696 21.7868L66.6567 26.5778H68.3137C68.3651 25.3319 68.0183 23.7263 68.9302 23.1997C69.3027 22.9813 69.6495 23.0712 70.0734 23.0841L70.1633 21.7226C69.0715 21.5427 68.6091 21.8767 68.2366 22.5831Z" fill="white"/>
<path fill-rule="evenodd" clip-rule="evenodd" d="M74.0297 30.4828V29.6865L72.5397 29.6736L72.5269 34.4518H74.171C74.2095 33.7068 74.081 32.5508 74.2352 31.8957C74.5049 30.7012 75.5325 30.9966 75.9435 30.9581C75.982 30.8168 76.0334 29.7378 75.9949 29.6094C74.3636 29.3397 74.2994 30.3672 74.0297 30.4828Z" fill="white"/>
<path fill-rule="evenodd" clip-rule="evenodd" d="M60.8638 42.3382H62.5079V37.5729L60.8638 37.5601V42.3382Z" fill="white"/>
<path fill-rule="evenodd" clip-rule="evenodd" d="M70.7026 26.5653L72.3467 26.5781L72.3596 21.8L70.7155 21.7871L70.7026 26.5653Z" fill="white"/>
<path fill-rule="evenodd" clip-rule="evenodd" d="M60.8638 36.7636L62.495 36.7765L62.5079 35.5819L60.8638 35.5691V36.7636Z" fill="white"/>
<path fill-rule="evenodd" clip-rule="evenodd" d="M70.7158 21.0035H72.3342L72.3599 19.809L70.7158 19.7961V21.0035Z" fill="white"/>
<path fill-rule="evenodd" clip-rule="evenodd" d="M79.8481 38.305C79.5655 39.0372 78.5508 38.6261 78.8077 37.8555C79.0646 37.1233 80.1435 37.5344 79.8481 38.305ZM79.1159 37.3417C78.0498 37.727 78.6407 39.1528 79.604 38.8188C79.9508 38.7032 80.2206 38.2665 80.0664 37.8169C79.9637 37.5087 79.5655 37.1747 79.1159 37.3417Z" fill="white"/>
</svg>
