<svg width="126" height="63" viewBox="0 0 126 63" fill="none" xmlns="http://www.w3.org/2000/svg">
<g clip-path="url(#clip0_445_1886)">
<path d="M63.1554 58.275C77.8591 58.275 89.775 46.3591 89.775 31.6597C89.775 16.9603 77.8591 5.04001 63.1554 5.04001C48.456 5.04001 36.54 16.9603 36.54 31.6597C36.54 46.3591 48.456 58.275 63.1554 58.275Z" fill="white"/>
<path d="M69.1285 24.7272C69.1285 21.7004 71.1776 18.7649 72.2955 19.3179C73.5699 19.9567 71.3405 22.8075 69.1285 24.7272ZM55.1951 25.8299C55.1951 23.3963 57.5961 18.7725 59.0628 19.2614C60.7967 19.8393 57.6265 24.5034 55.1951 25.8299ZM52.7604 43.2345C51.6566 43.2845 50.9178 42.5783 50.9178 41.3995C50.9178 38.2326 55.3124 35.2069 58.6315 33.5827C58.0426 38.0044 56.5488 43.0639 52.7604 43.2345ZM73.0353 32.9145C70.529 32.9145 68.6136 34.7582 68.6136 36.9691C68.6136 38.8127 69.7217 40.287 71.1917 40.287C71.7121 40.287 72.227 39.9904 72.227 39.332C72.227 38.3684 70.9559 38.137 71.0515 36.704C71.1156 35.7588 72.0065 35.1265 72.8909 35.1265C74.6585 35.1265 75.4852 36.8398 75.4852 38.6074C75.4135 41.3376 73.4036 43.2334 71.0483 43.2334C67.9498 43.2334 65.9594 40.287 65.9594 37.1157C65.9594 32.3941 69.0579 30.5515 70.6811 30.1115C70.6963 30.1115 74.9203 30.8622 74.7888 29.0001C74.728 28.1809 73.5101 27.8659 72.6301 27.8322C71.6512 27.7942 70.6626 28.1462 70.6626 28.1462C70.1498 27.8854 69.7934 27.3759 69.5729 26.7892C72.5964 24.5012 74.7345 22.2914 74.7345 19.7839C74.7345 18.4574 73.848 17.2775 72.1521 17.2775C69.1285 17.2775 66.8427 21.1115 66.8427 24.5773C66.8427 25.165 66.8427 25.7571 66.9948 26.2721C65.0762 27.6714 63.6497 28.5438 61.0716 30.092C61.0716 29.7693 61.139 28.936 61.3562 27.8583C62.2395 26.899 63.453 25.4616 63.453 24.3545C63.453 23.8396 63.1608 23.3952 62.5654 23.3952C61.0933 23.3952 59.9895 25.6094 59.694 27.1575C59.0302 27.9723 57.7026 29.0044 56.5944 29.0044C55.7112 29.0044 55.4146 28.1929 55.3396 27.8963C58.1426 26.937 61.6083 23.103 61.6083 19.6373C61.6083 18.9018 61.3128 17.2775 59.1019 17.2775C55.7839 17.2775 52.9853 22.2197 52.9853 26.0494C51.8022 26.0494 51.3622 24.7978 51.3622 23.8385C51.3622 22.8781 51.7305 21.9231 51.7305 21.6265C51.7305 21.331 51.5827 20.9638 51.1384 20.9638C50.0346 20.9638 49.3708 22.4381 49.3708 24.134C49.4468 26.4937 50.9939 27.9723 53.057 28.1168C53.3525 29.5194 54.6041 30.847 56.1512 30.847C57.1116 30.847 58.2903 30.5515 59.1019 29.816C59.0302 30.331 58.9585 30.7753 58.8824 31.2153C55.6362 32.9145 53.2765 34.0933 51.1384 36.0097C49.4468 37.5601 48.4875 39.6232 48.4875 41.2431C48.4875 43.4583 49.8868 45.5214 52.7615 45.5214C56.1512 45.5214 58.7347 42.7945 59.9895 39.0322C60.5773 37.2646 60.813 34.6897 60.964 32.3267C64.3515 30.407 65.9594 29.301 67.7303 28.0451C67.9509 28.4134 68.1736 28.7079 68.4658 28.9284C66.9188 29.74 63.2325 32.0269 63.2325 37.408C63.2325 41.242 65.8106 45.5203 70.9016 45.5203C75.1039 45.5203 77.9786 42.0535 77.9786 38.7345C77.9775 35.7142 76.2816 32.9145 73.0353 32.9145ZM85.7129 39.2484C85.702 39.2712 85.6607 39.3016 85.5771 39.2745C85.5119 39.2516 85.4978 39.2212 85.4978 39.1789C85.501 39.1376 86.3886 36.5128 86.381 33.5055C86.3734 30.2549 85.0545 28.2635 83.3629 28.2635C82.3276 28.2635 81.591 29.0034 81.591 30.1115C81.591 32.1019 84.0224 32.2507 84.0224 36.5997C84.0224 38.3673 83.6541 40.0632 83.0674 41.9058C80.3361 51.1209 71.636 55.3992 63.1608 55.3992C59.2507 55.3992 56.4738 54.5953 55.6481 54.2248C55.6145 54.2052 55.583 54.1411 55.6101 54.076C55.6286 54.0271 55.6862 53.989 55.7198 54.0043C56.0545 54.1335 58.4392 54.8843 61.3899 54.8843C64.6329 54.8843 66.5515 53.5577 66.5515 51.9335C66.5515 50.9025 65.74 50.0909 64.709 50.0909C62.7175 50.0909 62.5665 52.5973 58.2914 52.5973C56.4488 52.5973 54.8257 52.229 52.9103 51.6369C43.7648 48.8361 39.4115 40.212 39.4147 31.6597C39.418 27.4921 40.587 24.1731 40.6055 24.1427C40.6207 24.121 40.6728 24.0971 40.7369 24.121C40.8021 24.1427 40.8162 24.1959 40.813 24.2155C40.7076 24.561 39.933 26.9391 39.933 29.8899C39.933 33.1361 41.2595 35.0515 42.9554 35.0515C43.9115 35.0515 44.723 34.316 44.723 33.2839C44.723 31.2903 42.2883 31.0698 42.2883 26.7925C42.2883 24.9488 42.6599 23.3257 43.2476 21.4103C46.0506 12.2669 54.679 7.98206 63.1586 7.91579C67.0991 7.88537 70.5463 9.06523 70.6789 9.17061C70.7017 9.19017 70.7245 9.24014 70.7017 9.29989C70.6702 9.3716 70.6246 9.3792 70.6028 9.37486C70.5615 9.3716 68.3192 8.43401 64.9252 8.43401C61.755 8.43075 59.7635 9.75837 59.7635 11.4565C59.7635 12.4125 60.5034 13.2241 61.6061 13.2241C63.5975 13.2241 63.7453 10.7926 68.0237 10.7926C69.8619 10.7926 71.4861 11.1566 73.4015 11.7487C82.6209 14.5506 86.8156 23.2507 86.8949 31.6586C86.9384 35.9641 85.7248 39.2212 85.7129 39.2484ZM63.1597 6.29483C49.1502 6.29483 37.796 17.6458 37.796 31.6586C37.796 45.6681 49.1502 57.0191 63.1597 57.0191C77.1659 57.0191 88.5202 45.6681 88.5202 31.6586C88.5202 17.7219 77.1659 6.29483 63.1597 6.29483ZM63.1597 58.275C48.4864 58.275 36.54 46.4047 36.54 31.6597C36.54 16.982 48.4864 5.04001 63.1597 5.04001C77.8287 5.04001 89.775 16.982 89.775 31.6597C89.775 46.4047 77.8287 58.275 63.1597 58.275Z" fill="#3B73B9"/>
</g>
<defs>
<clipPath id="clip0_445_1886">
<rect width="53.235" height="53.235" fill="white" transform="translate(36.54 5.04001)"/>
</clipPath>
</defs>
</svg>
