<svg data-slug-id="container-apps" xmlns="http://www.w3.org/2000/svg" viewBox="0 0 18 18">
  <defs>
    <linearGradient id="container-apps_e9269723-22d5-4970-95c6-bdb37cebd3b4" x1="8.798" y1="8.703" x2="14.683" y2="8.703" gradientUnits="userSpaceOnUse">
      <stop offset=".001" stop-color="#773adc"/>
      <stop offset="1" stop-color="#552f99"/>
    </linearGradient>
    <linearGradient id="container-apps_45997d10-d650-4d22-99be-b36af8ef885d" x1="5.764" y1="3.777" x2="5.764" y2="13.78" gradientUnits="userSpaceOnUse">
      <stop offset="0" stop-color="#a67af4"/>
      <stop offset=".999" stop-color="#773adc"/>
    </linearGradient>
  </defs>
  <path d="M16.932 11.578a8.448 8.448 0 01-7.95 5.59 8.15 8.15 0 01-2.33-.33 2.133 2.133 0 00.18-.83c.01 0 .03.01.04.01a7.422 7.422 0 002.11.3 7.646 7.646 0 006.85-4.28l.01-.01zM3.582 14.068a2.025 2.025 0 00-.64.56 8.6 8.6 0 01-1.67-2.44l1.04.23v.26a.6.6 0 00.47.59l.14.03a6.136 6.136 0 00.62.73zM12.352.958a2.28 2.28 0 00-.27.81c-.02-.01-.05-.02-.07-.03a7.479 7.479 0 00-3.03-.63 7.643 7.643 0 00-5.9 2.8l-.29.06a.6.6 0 00-.48.58v.46l-1.02.19a8.454 8.454 0 017.69-4.93 8.6 8.6 0 013.37.69zM16.872 5.7l-1.09-.38a6.6 6.6 0 00-.72-1.16c-.02-.03-.04-.05-.05-.07a2.083 2.083 0 00.72-.45 7.81 7.81 0 011.14 2.06z" fill="#32bedd"/>
  <path d="M10.072 11.908l2.54.56-3.94 1.632c-.02 0-.03.01-.05.01a.154.154 0 01-.15-.15V3.448a.154.154 0 01.15-.15.09.09 0 01.05.01l4.46 1.56-3.05.57a.565.565 0 00-.44.54v5.4a.537.537 0 00.43.53z" fill="#fff"/>
  <path d="M1.1 5.668l1.21-.23v6.55l-1.23-.27-.99-.22a.111.111 0 01-.09-.12v-5.4a.12.12 0 01.09-.12z" fill="#a67af4"/>
  <path d="M10.072 11.908l2.54.56-3.94 1.632c-.02 0-.03.01-.05.01a.154.154 0 01-.15-.15V3.448a.154.154 0 01.15-.15.09.09 0 01.05.01l4.46 1.56-3.05.57a.565.565 0 00-.44.54v5.4a.537.537 0 00.43.53z" fill="url(#container-apps_e9269723-22d5-4970-95c6-bdb37cebd3b4)"/>
  <path d="M8.586 3.3L2.878 4.378a.177.177 0 00-.14.175v8.127a.177.177 0 00.137.174L8.581 14.1a.176.176 0 00.21-.174V3.478a.175.175 0 00-.172-.178z" fill="url(#container-apps_45997d10-d650-4d22-99be-b36af8ef885d)"/>
  <path fill="#b796f9" opacity=".5" d="M5.948 4.921v7.562l1.986.331v-8.25l-1.986.357zM3.509 5.329v6.625l1.729.363V5.031l-1.729.298z"/>
  <path d="M16 2.048a1.755 1.755 0 11-1.76-1.76A1.756 1.756 0 0116 2.048z" fill="#32bedd"/>
  <circle cx="4.65" cy="15.973" r="1.759" fill="#32bedd"/>
  <path d="M18 6.689v3.844a.222.222 0 01-.133.2l-.766.316-3.07 1.268h-.011a.126.126 0 01-.038 0 .1.1 0 01-.1-.1V5.234a.1.1 0 01.054-.088h.019a.031.031 0 01.019 0 .055.055 0 01.034.008h.023L17.05 6.2l.8.282a.213.213 0 01.15.207z" fill="#773adc"/>
  <path d="M13.959 5.14l-3.8.715a.118.118 0 00-.093.117v5.409a.118.118 0 00.091.116l3.8.831a.115.115 0 00.137-.09.109.109 0 000-.026V5.256a.117.117 0 00-.115-.118.082.082 0 00-.02.002z" fill="#a67af4"/>
</svg>
