<svg width="126" height="63" viewBox="0 0 126 63" fill="none" xmlns="http://www.w3.org/2000/svg">
<g clip-path="url(#clip0_3_355)">
<path d="M97.965 17.325H28.035V45.6749H97.965V17.325Z" fill="#005EB8"/>
<path d="M34.8703 20.0608H42.4768L47.1397 35.8872H47.2105L50.4088 20.0608H56.1544L51.3216 42.8825H43.7504L38.9813 27.0916H38.9176L35.7547 42.8825H30.0092L34.8703 20.0608Z" fill="white"/>
<path d="M58.3974 20.0608H64.5039L62.7066 28.7926H69.924L71.7212 20.0608H77.8277L73.0939 42.8825H66.9521L68.9758 33.1089H61.7938L59.7701 42.8825H53.6708L58.3974 20.0608Z" fill="white"/>
<path d="M93.8827 25.2275C92.3175 24.5058 90.6099 24.1472 88.8871 24.1786C86.4743 24.1786 84.5143 24.54 84.5143 26.3686C84.5143 29.6076 93.3591 28.3956 93.3591 35.3272C93.3591 41.6351 87.5144 43.2723 82.2288 43.2723C79.8266 43.2163 77.4444 42.8202 75.153 42.0958L76.5681 37.4534C77.7781 38.2402 80.1909 38.7646 82.1793 38.7646C84.1676 38.7646 87.0404 38.4032 87.0404 36.0501C87.0404 32.3859 78.1956 33.7609 78.1956 27.3183C78.1956 21.4357 83.3538 19.6638 88.3494 19.6638C91.1797 19.6638 93.7978 19.9615 95.3332 20.6773L93.8827 25.2275Z" fill="white"/>
</g>
<defs>
<clipPath id="clip0_3_355">
<rect width="69.93" height="28.35" fill="white" transform="translate(28.035 17.325)"/>
</clipPath>
</defs>
</svg>
